<?xml version="1.0" encoding="utf-8"?>
<!-- Generator: Adobe Illustrator 19.2.0, SVG Export Plug-In . SVG Version: 6.00 Build 0)  -->
<svg version="1.1" xmlns="http://www.w3.org/2000/svg" xmlns:xlink="http://www.w3.org/1999/xlink" x="0px" y="0px"
	 viewBox="0 0 40 40" style="enable-background:new 0 0 40 40;" xml:space="preserve">
<style type="text/css">
	.st0{display:none;}
	.st1{display:inline;}
</style>
<g id="Layer_1" class="st0">
	<g class="st1">
		<path d="M37.1,19.3h-0.7v-8.5c0-3-2.4-5.4-5.4-5.4c-2.5,0-4.5,1.5-5.2,3.6c-1.4,0.2-2.7,1.1-3.3,2.3c-0.5,1,0.2,2.2,1.3,2.2h5.3
			c1.1,0,1.8-1.2,1.3-2.2c-0.6-1.1-1.6-1.9-2.8-2.2c0.5-1.2,1.8-2,3.3-2c2,0,3.6,1.6,3.6,3.6v8.5H4.4H2.9c-0.5,0-0.9,0.4-0.9,0.9
			S2.4,21,2.9,21h0.7v3.3c0,3.9,3.1,7.2,7,7.4c-0.3,0.7-1,1.2-1.9,1.2c-0.5,0-0.9,0.4-0.9,0.9c0,0.5,0.4,0.9,0.9,0.9
			c1.8,0,3.3-1.3,3.7-2.9h15.3c0.4,1.7,1.9,2.9,3.7,2.9c0.5,0,0.9-0.4,0.9-0.9c0-0.5-0.4-0.9-0.9-0.9c-0.8,0-1.6-0.5-1.9-1.2
			c3.9-0.2,7-3.4,7-7.3V21h0.7c0.5,0,0.9-0.4,0.9-0.9C38,19.7,37.6,19.3,37.1,19.3z M34.7,24.4c0,3.1-2.5,5.6-5.6,5.6H10.9
			c-3.1,0-5.6-2.5-5.6-5.6V21h29.4L34.7,24.4L34.7,24.4z"/>
	</g>
</g>
<g id="Layer_2" class="st0">
	<g transform="translate(0,-952.36218)" class="st1">
		<path d="M8.6,958.5c-1.6,0-2.9,1.3-2.9,2.9v8.5H4.9c-1.6,0-2.9,1.3-2.9,2.9v12.7c0,0.4,0.4,0.8,0.8,0.8s0.8-0.4,0.8-0.8v-2.9h32.7
			v2.9c0,0.4,0.4,0.8,0.8,0.8s0.8-0.4,0.8-0.8v-12.7c0-1.6-1.3-2.9-2.9-2.9h-0.8v-8.5c0-1.6-1.3-2.9-2.9-2.9H8.6z M8.6,960.1h22.9
			c0.7,0,1.3,0.5,1.3,1.3v8.5h-3c0.1-0.3,0.2-0.7,0.2-1.1v-2.8c0-0.7-0.2-1.3-0.5-1.8s-0.9-0.9-1.6-0.9h-3.9c-0.7,0-1.3,0.4-1.6,0.9
			c-0.4,0.5-0.5,1.1-0.5,1.8v2.8c0,0.4,0.1,0.8,0.2,1.1h-3.6c0.1-0.3,0.2-0.7,0.2-1.1v-2.8c0-0.7-0.2-1.3-0.5-1.8s-0.9-0.9-1.6-0.9
			h-3.9c-0.7,0-1.3,0.4-1.6,0.9c-0.4,0.5-0.5,1.1-0.5,1.8v2.8c0,0.4,0.1,0.8,0.2,1.1h-3v-8.5C7.3,960.6,7.9,960.1,8.6,960.1z
			 M12.3,965h3.9c0.1,0,0.1,0,0.3,0.2c0.1,0.2,0.2,0.5,0.2,0.9v2.8c0,0.4-0.1,0.7-0.2,0.9c-0.1,0.2-0.2,0.2-0.3,0.2h-3.9
			c-0.1,0-0.1,0-0.3-0.2c-0.1-0.2-0.2-0.5-0.2-0.9v-2.8c0-0.4,0.1-0.7,0.2-0.9C12.2,965,12.3,965,12.3,965z M23.8,965h3.9
			c0.1,0,0.1,0,0.3,0.2c0.1,0.2,0.2,0.5,0.2,0.9v2.8c0,0.4-0.1,0.7-0.2,0.9c-0.1,0.2-0.2,0.2-0.3,0.2h-3.9c-0.1,0-0.1,0-0.3-0.2
			c-0.1-0.2-0.2-0.5-0.2-0.9v-2.8c0-0.4,0.1-0.7,0.2-0.9C23.6,965,23.7,965,23.8,965z M4.9,971.5c11,0,20.5,0,30.1,0
			c0.7,0,1.3,0.5,1.3,1.2v2.8l-32.7,0.1v-3C3.6,972.1,4.2,971.5,4.9,971.5L4.9,971.5z M36.4,977.3v3.7H3.6v-3.6L36.4,977.3z"/>
	</g>
</g>
<g id="Layer_3">
	<g transform="translate(0,-1020.3622)">
		<path d="M12.3,1044v1.4h16.3v-1.4H12.3z"/>
		<path d="M2.8,1041.3v1.4h4.8v-1.4H2.8z"/>
		<path d="M34.1,1041.3v1.4h3.4v-1.4H34.1z"/>
		<path d="M23.5,1033.7l-1,4.1l1.4,0.3l1-4.1L23.5,1033.7z"/>
		<path d="M20.9,1033.2c-1.5,0-3,0.4-4.3,1.2l-5.2,3l-2.6,0.4l-2.7,0.4c-2.3,0.4-4.1,2.3-4.1,4.8v0.5c0,1.1,1,2,2,2h3.4v-1.4H4.2
			c-0.4,0-0.7-0.3-0.7-0.7v-0.5c0-1.6,1.2-3.1,2.9-3.4l2.7-0.4l2.7-0.4c0.1,0,0.1,0,0.3-0.1l5.3-3c1.1-0.7,2.4-1,3.7-1h9.4
			c1.8,0,3.4,0.8,4.5,2.2l1.2,1.5c0.3,0.4,0.5,0.8,0.5,1.4v3.8c0,0.4-0.3,0.7-0.7,0.7h-1.6v1.4H36c1.1,0,2-1,2-2v-3.8
			c0-0.8-0.3-1.6-0.8-2.2L36,1036c-1.4-1.8-3.4-2.7-5.6-2.7L20.9,1033.2z"/>
		<path d="M30.5,1033.7l-1.2,0.4l1.4,4.1l1.2-0.4L30.5,1033.7z"/>
		<path d="M9.9,1040c-2,0-3.7,1.6-3.7,3.8s1.6,3.8,3.7,3.8s3.7-1.6,3.7-3.8S11.9,1040,9.9,1040z M9.9,1041.3c1.4,0,2.3,1.1,2.3,2.4
			s-1.1,2.4-2.3,2.4s-2.3-1.1-2.3-2.4S8.5,1041.3,9.9,1041.3z"/>
		<path d="M31.3,1040c-2,0-3.7,1.6-3.7,3.8s1.6,3.8,3.7,3.8s3.7-1.6,3.7-3.8S33.4,1040,31.3,1040z M31.3,1041.3
			c1.4,0,2.3,1.1,2.3,2.4s-1.1,2.4-2.3,2.4c-1.2,0-2.3-1.1-2.3-2.4S30,1041.3,31.3,1041.3z"/>
		<path d="M11.6,1037.2v1.4h25.1v-1.4H11.6z"/>
	</g>
</g>
</svg>
