<?xml version="1.0" encoding="utf-8"?>
<!-- Generator: Adobe Illustrator 19.2.0, SVG Export Plug-In . SVG Version: 6.00 Build 0)  -->
<svg version="1.1" id="Layer_1" xmlns="http://www.w3.org/2000/svg" xmlns:xlink="http://www.w3.org/1999/xlink" x="0px" y="0px"
	 viewBox="0 0 40 40" style="enable-background:new 0 0 40 40;" xml:space="preserve">
<g>
	<path d="M37.1,19.3h-0.7v-8.5c0-3-2.4-5.4-5.4-5.4c-2.5,0-4.5,1.5-5.2,3.6c-1.4,0.2-2.7,1.1-3.3,2.3c-0.5,1,0.2,2.2,1.3,2.2h5.3
		c1.1,0,1.8-1.2,1.3-2.2c-0.6-1.1-1.6-1.9-2.8-2.2c0.5-1.2,1.8-2,3.3-2c2,0,3.6,1.6,3.6,3.6v8.5H4.4H2.9c-0.5,0-0.9,0.4-0.9,0.9
		S2.4,21,2.9,21h0.7v3.3c0,3.9,3.1,7.2,7,7.4c-0.3,0.7-1,1.2-1.9,1.2c-0.5,0-0.9,0.4-0.9,0.9c0,0.5,0.4,0.9,0.9,0.9
		c1.8,0,3.3-1.3,3.7-2.9h15.3c0.4,1.7,1.9,2.9,3.7,2.9c0.5,0,0.9-0.4,0.9-0.9c0-0.5-0.4-0.9-0.9-0.9c-0.8,0-1.6-0.5-1.9-1.2
		c3.9-0.2,7-3.4,7-7.3V21h0.7c0.5,0,0.9-0.4,0.9-0.9C38,19.7,37.6,19.3,37.1,19.3z M34.7,24.4c0,3.1-2.5,5.6-5.6,5.6H10.9
		c-3.1,0-5.6-2.5-5.6-5.6V21h29.4L34.7,24.4L34.7,24.4z"/>
</g>
</svg>
