<svg xmlns:dc="http://purl.org/dc/elements/1.1/" xmlns:cc="http://creativecommons.org/ns#" xmlns:rdf="http://www.w3.org/1999/02/22-rdf-syntax-ns#" xmlns:svg="http://www.w3.org/2000/svg" xmlns="http://www.w3.org/2000/svg" xmlns:sodipodi="http://sodipodi.sourceforge.net/DTD/sodipodi-0.dtd" xmlns:inkscape="http://www.inkscape.org/namespaces/inkscape" version="1.1" x="0px" y="0px" viewBox="0 0 100 100"><g transform="translate(0,-952.36218)"><path style="text-indent:0;text-transform:none;direction:ltr;block-progression:tb;baseline-shift:baseline;color:#000000;enable-background:accumulate;" d="m 22.0625,968.36219 c -3.898997,0 -7.062498,3.2134 -7.062498,7.122 l 0,20.86617 -1.8438,0 c -3.9044999,0 -7.1561999,3.1409 -7.1561999,7.02834 l 0,30.9558 c -0.015,1.0562 0.9433,2.0277 2,2.0277 1.0567,0 2.0148999,-0.9715 1.9999999,-2.0277 l 0,-6.997 79.999998,0 0,6.997 c -0.015,1.0562 0.9433,2.0277 2,2.0277 1.0567,0 2.0149,-0.9715 2,-2.0277 l 0,-30.9558 c 0,-3.88744 -3.2517,-7.02834 -7.1562,-7.02834 l -1.8438,0 0,-20.86617 c 0,-3.90859 -3.1635,-7.12199 -7.0625,-7.12199 z m 0,3.9983 55.875,0 c 1.7166,0 3.0625,1.326 3.0625,3.1237 l 0,20.86617 -7.4375,0 c 0.2743,-0.8217 0.4375,-1.7297 0.4375,-2.655 l 0,-6.74717 c 0,-1.6566 -0.4493,-3.1765 -1.3125,-4.4045 -0.8632,-1.2279 -2.2742,-2.2177 -3.9375,-2.2177 l -9.5,0 c -1.6633,0 -3.0743,0.9898 -3.9375,2.2177 -0.8632,1.228 -1.3125,2.7479 -1.3125,4.4045 l 0,6.74717 c 0,0.9253 0.1632,1.8333 0.4375,2.655 l -8.875,0 c 0.2743,-0.8217 0.4375,-1.7297 0.4375,-2.655 l 0,-6.74717 c 0,-1.6566 -0.4493,-3.1765 -1.3125,-4.4045 -0.8632,-1.2279 -2.2742,-2.2177 -3.9375,-2.2177 l -9.5,0 c -1.6633,0 -3.0743,0.9898 -3.9375,2.2177 -0.8632,1.228 -1.3125,2.7479 -1.3125,4.4045 l 0,6.74717 c 0,0.9253 0.1632,1.8333 0.4375,2.655 l -7.4375,0 0,-20.86617 c 0,-1.7977 1.3459,-3.1237 3.0625,-3.1237 z m 9.1875,11.9638 9.5,0 c 0.1356,0 0.3457,0.058 0.6562,0.4998 0.3107,0.4418 0.5938,1.2215 0.5938,2.1241 l 0,6.74717 c 0,0.9025 -0.2831,1.6821 -0.5938,2.1241 -0.3105,0.4418 -0.5206,0.4998 -0.6562,0.4998 l -9.5,0 c -0.1356,0 -0.3457,-0.058 -0.6562,-0.4998 C 30.2831,995.37746 30,994.59786 30,993.69536 l 0,-6.74717 c 0,-0.9026 0.2831,-1.6823 0.5938,-2.1241 0.3105,-0.442 0.5206,-0.4998 0.6562,-0.4998 z m 28,0 9.5,0 c 0.1356,0 0.3457,0.058 0.6562,0.4998 0.3107,0.4418 0.5938,1.2215 0.5938,2.1241 l 0,6.74717 c 0,0.9025 -0.2831,1.6821 -0.5938,2.1241 -0.3105,0.4418 -0.5206,0.4998 -0.6562,0.4998 l -9.5,0 c -0.1356,0 -0.3457,-0.058 -0.6562,-0.4998 C 58.2831,995.37746 58,994.59786 58,993.69536 l 0,-6.74717 c 0,-0.9026 0.2831,-1.6823 0.5938,-2.1241 0.3105,-0.442 0.5206,-0.4998 0.6562,-0.4998 z m -46.093798,16.02451 c 26.824898,0.037 49.992098,0 73.687598,0 1.8063,0 3.1562,1.3379 3.1562,3.0299 l 0,6.9659 -79.999998,0.2499 0,-7.2158 c 0,-1.692 1.35,-3.0299 3.1562,-3.0299 z M 90,1014.3429 l 0,8.9962 -79.999998,0 0,-8.7463 z" fill="#000000" fill-opacity="1" stroke="none" marker="none" visibility="visible" display="inline" overflow="visible"></path></g></svg>