<svg xmlns="http://www.w3.org/2000/svg" xmlns:xlink="http://www.w3.org/1999/xlink" version="1.1" x="0px" y="0px" viewBox="0 0 100 100" style="enable-background:new 0 0 100 100;" xml:space="preserve"><g><path d="M93.7,48.1H92V26.3c0-7.6-6.2-13.7-13.7-13.7c-6.3,0-11.5,3.9-13.2,9.3c-3.7,0.5-6.8,2.8-8.5,5.9c-1.4,2.5,0.5,5.6,3.3,5.6   h13.6c2.9,0,4.7-3.1,3.3-5.6c-1.5-2.7-4.1-4.8-7.2-5.6c1.4-3.1,4.6-5.2,8.5-5.2c5.1,0,9.3,4.2,9.3,9.3v21.8H10.2h-4   c-1.2,0-2.2,1-2.2,2.2c0,1.2,1,2.2,2.2,2.2H8v8.5c0,10,7.9,18.3,17.8,18.8c-0.8,1.8-2.6,3.1-4.8,3.1c-1.2,0-2.2,1-2.2,2.2   c0,1.2,1,2.2,2.2,2.2c4.6,0,8.4-3.2,9.4-7.5h39.1c1,4.3,4.8,7.5,9.4,7.5c1.2,0,2.2-1,2.2-2.2c0-1.2-1-2.2-2.2-2.2   c-2.1,0-4-1.3-4.8-3.1C84.1,79.4,92,71.1,92,61.1v-8.5h1.8c1.2,0,2.2-1,2.2-2.2C95.9,49.1,95,48.1,93.7,48.1z M87.6,61.1   c0,7.9-6.4,14.4-14.4,14.4H26.8c-7.9,0-14.4-6.4-14.4-14.4v-8.5h75.1V61.1z"></path></g></svg>