<?xml version="1.0" encoding="utf-8"?>
<!-- Generator: Adobe Illustrator 22.1.0, SVG Export Plug-In . SVG Version: 6.00 Build 0)  -->
<svg version="1.1"
	 id="Layer_1" xmlns:cc="http://creativecommons.org/ns#" xmlns:dc="http://purl.org/dc/elements/1.1/" xmlns:inkscape="http://www.inkscape.org/namespaces/inkscape" xmlns:rdf="http://www.w3.org/1999/02/22-rdf-syntax-ns#" xmlns:sodipodi="http://sodipodi.sourceforge.net/DTD/sodipodi-0.dtd" xmlns:svg="http://www.w3.org/2000/svg"
	 xmlns="http://www.w3.org/2000/svg" xmlns:xlink="http://www.w3.org/1999/xlink" x="0px" y="0px" viewBox="0 0 32 32"
	 style="enable-background:new 0 0 32 32;" xml:space="preserve">
<g transform="translate(0,-1020.3622)">
	<path d="M11.3,1048.9v1h12v-1H11.3z"/>
	<path d="M4.3,1046.9v1h3.5v-1H4.3z"/>
	<path d="M27.3,1046.9v1h2.5v-1H27.3z"/>
	<path d="M19.5,1041.3l-0.7,3l1,0.2l0.7-3L19.5,1041.3z"/>
	<path d="M17.6,1040.9c-1.1,0-2.2,0.3-3.2,0.9l-3.8,2.2l-1.9,0.3l-2,0.3c-1.7,0.3-3,1.7-3,3.5v0.4c0,0.8,0.7,1.5,1.5,1.5h2.5v-1H5.3
		c-0.3,0-0.5-0.2-0.5-0.5v-0.4c0-1.2,0.9-2.3,2.1-2.5l2-0.3l2-0.3c0.1,0,0.1,0,0.2-0.1l3.9-2.2c0.8-0.5,1.8-0.7,2.7-0.7h6.9
		c1.3,0,2.5,0.6,3.3,1.6l0.9,1.1c0.2,0.3,0.4,0.6,0.4,1v2.8c0,0.3-0.2,0.5-0.5,0.5h-1.2v1h1.2c0.8,0,1.5-0.7,1.5-1.5v-2.8
		c0-0.6-0.2-1.2-0.6-1.6l-0.9-1.1c-1-1.3-2.5-2-4.1-2L17.6,1040.9z"/>
	<path d="M24.7,1041.3l-0.9,0.3l1,3l0.9-0.3L24.7,1041.3z"/>
	<path d="M9.5,1045.9c-1.5,0-2.7,1.2-2.7,2.8s1.2,2.8,2.7,2.8s2.7-1.2,2.7-2.8S11,1045.9,9.5,1045.9z M9.5,1046.9
		c1,0,1.7,0.8,1.7,1.8s-0.8,1.8-1.7,1.8s-1.7-0.8-1.7-1.8S8.5,1046.9,9.5,1046.9z"/>
	<path d="M25.3,1045.9c-1.5,0-2.7,1.2-2.7,2.8s1.2,2.8,2.7,2.8c1.5,0,2.7-1.2,2.7-2.8S26.8,1045.9,25.3,1045.9z M25.3,1046.9
		c1,0,1.7,0.8,1.7,1.8s-0.8,1.8-1.7,1.8s-1.7-0.8-1.7-1.8S24.3,1046.9,25.3,1046.9z"/>
	<path d="M10.8,1043.9v1h18.5v-1H10.8z"/>
</g>
</svg>
